<?xml version="1.0" encoding="UTF-8"?><svg id="Capa_1" xmlns="http://www.w3.org/2000/svg" viewBox="0 0 112.2 112.2"><defs><style>.cls-1{fill:#9f5435;}.cls-2{fill:#fff;}</style></defs><circle class="cls-1" cx="56.1" cy="56.1" r="56.1"/><path class="cls-2" d="M89.62,60.61v23.13h-13.41v-21.58c0-5.42-1.94-9.12-6.79-9.12-3.71,0-5.91,2.49-6.88,4.9-.35,.86-.44,2.06-.44,3.27v22.52h-13.41s.18-36.55,0-40.33h13.41v5.72s-.06,.09-.09,.13h.09v-.13c1.78-2.74,4.96-6.66,12.09-6.66,8.82,0,15.44,5.76,15.44,18.15h0ZM34.66,23.97c-4.59,0-7.59,3.01-7.59,6.97s2.91,6.97,7.41,6.97h.09c4.68,0,7.58-3.1,7.58-6.97-.09-3.96-2.91-6.97-7.5-6.97h0Zm-6.79,59.77h13.41V43.41h-13.41v40.33Z"/></svg>